<?xml version="1.0" encoding="utf-8"?>
<!-- Generator: Adobe Illustrator 18.0.0, SVG Export Plug-In . SVG Version: 6.00 Build 0)  -->
<!DOCTYPE svg PUBLIC "-//W3C//DTD SVG 1.1//EN" "http://www.w3.org/Graphics/SVG/1.1/DTD/svg11.dtd" [
	<!ENTITY ns_extend "http://ns.adobe.com/Extensibility/1.0/">
	<!ENTITY ns_ai "http://ns.adobe.com/AdobeIllustrator/10.0/">
	<!ENTITY ns_graphs "http://ns.adobe.com/Graphs/1.0/">
	<!ENTITY ns_vars "http://ns.adobe.com/Variables/1.0/">
	<!ENTITY ns_imrep "http://ns.adobe.com/ImageReplacement/1.0/">
	<!ENTITY ns_sfw "http://ns.adobe.com/SaveForWeb/1.0/">
	<!ENTITY ns_custom "http://ns.adobe.com/GenericCustomNamespace/1.0/">
	<!ENTITY ns_adobe_xpath "http://ns.adobe.com/XPath/1.0/">
]>
<svg version="1.1" id="图层_1" xmlns:x="&ns_extend;" xmlns:i="&ns_ai;" xmlns:graph="&ns_graphs;"
	 xmlns="http://www.w3.org/2000/svg" xmlns:xlink="http://www.w3.org/1999/xlink" x="0px" y="0px" viewBox="0 0 46 46"
	 style="enable-background:new 0 0 46 46;" xml:space="preserve">
<style type="text/css">
	.st0{opacity:0.05;}
	.st1{clip-path:url(#SVGID_2_);}
	.st2{fill:#FFFFFF;}
	.st3{clip-path:url(#SVGID_4_);fill:url(#SVGID_5_);}
	.st4{fill:#A82C4C;}
	.st5{fill:#9E1F15;}
	.st6{opacity:0.1;}
	.st7{clip-path:url(#SVGID_7_);}
	.st8{fill:#CCCCCC;}
	.st9{fill:#6699EE;}
	.st10{fill:#4582EE;}
	.st11{opacity:0.3;}
	.st12{clip-path:url(#SVGID_9_);fill:#6699EE;}
	.st13{clip-path:url(#SVGID_11_);fill:#4582EE;}
	.st14{clip-path:url(#SVGID_13_);fill:url(#SVGID_14_);}
	.st15{fill:#647382;}
	.st16{fill:#283746;}
</style>
<metadata>
	<sfw  xmlns="&ns_sfw;">
		<slices></slices>
		<sliceSourceBounds  height="130.321" width="517.161" x="-10.161" y="-120.16" bottomLeftOrigin="true"></sliceSourceBounds>
	</sfw>
</metadata>
<g>
	<defs>
		<polygon id="SVGID_3_" points="26,0 0,26 0,44 44,0 		"/>
	</defs>
	<clipPath id="SVGID_2_">
		<use xlink:href="#SVGID_3_"  style="overflow:visible;"/>
	</clipPath>
	
		<linearGradient id="SVGID_4_" gradientUnits="userSpaceOnUse" x1="0.963" y1="44.9776" x2="1.963" y2="44.9776" gradientTransform="matrix(7.7775 31.7765 31.7765 -7.7775 -1419.1455 323.1209)">
		<stop  offset="0" style="stop-color:#FB7090"/>
		<stop  offset="1" style="stop-color:#EB4628"/>
	</linearGradient>
	<polygon style="clip-path:url(#SVGID_2_);fill:url(#SVGID_4_);" points="41.513,-10.161 54.161,41.513 2.487,54.161 -10.161,2.487 
			"/>
</g>
<g>
	<path class="st2" d="M13.357,26.939l-4.764-4.764l0.989-0.989L12.855,22c0.848,0.211,1.675,0.487,2.41,0.784l0.015-0.014
		c-0.693-0.58-1.33-1.174-2.057-1.901l-1.662-1.661l0.807-0.806l4.764,4.764l-0.898,0.897l-3.335-0.848
		c-0.827-0.22-1.732-0.488-2.503-0.792l-0.014,0.028c0.65,0.58,1.285,1.201,2.07,1.986l1.703,1.703L13.357,26.939z"/>
	<path class="st2" d="M18.688,17.381l-1.795,1.795l1.398,1.399l2.008-2.007l0.714,0.714l-2.876,2.876l-4.764-4.764l2.77-2.771
		l0.715,0.714l-1.902,1.901l1.23,1.229l1.795-1.795L18.688,17.381z"/>
	<path class="st2" d="M22.599,17.697l-5.929-3.598l0.925-0.925l2.615,1.711c0.699,0.459,1.421,0.954,1.973,1.349l0.014-0.014
		c-0.424-0.58-0.855-1.28-1.321-2.014l-1.64-2.672l0.911-0.912l2.665,1.718c0.685,0.444,1.314,0.876,1.9,1.321l0.015-0.015
		c-0.438-0.607-0.87-1.264-1.321-1.97l-1.662-2.651l0.884-0.883l3.485,6.042l-0.934,0.933l-2.735-1.745
		c-0.665-0.424-1.2-0.792-1.772-1.251l-0.016,0.015c0.424,0.593,0.791,1.145,1.195,1.83l1.688,2.792L22.599,17.697z"/>
</g>
<polygon class="st4" points="44,0 42,2 46,2 "/>
<polygon class="st5" points="0,44 2,46 2,42 "/>
</svg>
