<?xml version="1.0" encoding="utf-8"?>
<!-- Generator: Adobe Illustrator 18.0.0, SVG Export Plug-In . SVG Version: 6.00 Build 0)  -->
<!DOCTYPE svg PUBLIC "-//W3C//DTD SVG 1.1//EN" "http://www.w3.org/Graphics/SVG/1.1/DTD/svg11.dtd">
<svg version="1.1" id="图层_1" xmlns="http://www.w3.org/2000/svg" xmlns:xlink="http://www.w3.org/1999/xlink" x="0px" y="0px"
	 viewBox="0 0 46 46" enable-background="new 0 0 46 46" xml:space="preserve">
<g id="XMLID_111_">
	
		<linearGradient id="XMLID_2_" gradientUnits="userSpaceOnUse" x1="13.0728" y1="5.7758" x2="20.8503" y2="37.5523" gradientTransform="matrix(1 0 0 1 4.5 -1.864)">
		<stop  offset="0" style="stop-color:#FB7090"/>
		<stop  offset="1" style="stop-color:#EB4628"/>
	</linearGradient>
	<polygon id="XMLID_121_" fill="url(#XMLID_2_)" points="26,0 0,26 0,44 44,0 	"/>
	<g>
		<g>
			<path fill="#FFFFFF" d="M21.99,17.053l-3.811-3.811l0.792-0.791l2.617,0.65c0.679,0.17,1.341,0.39,1.929,0.627l0.011-0.011
				c-0.554-0.464-1.062-0.938-1.646-1.521l-1.328-1.329l0.645-0.645l3.811,3.811l-0.718,0.718l-2.669-0.678
				c-0.661-0.176-1.385-0.391-2.001-0.634l-0.012,0.022c0.521,0.464,1.028,0.961,1.657,1.59l1.361,1.361L21.99,17.053z"/>
			<path fill="#FFFFFF" d="M26.256,9.407l-1.437,1.437l1.119,1.119l1.605-1.605l0.571,0.571l-2.301,2.301l-3.811-3.811l2.217-2.217
				l0.57,0.571L23.27,9.294l0.983,0.984l1.437-1.437L26.256,9.407z"/>
			<path fill="#FFFFFF" d="M29.389,9.654l-4.742-2.877l0.74-0.741l2.092,1.368c0.56,0.368,1.137,0.764,1.577,1.08l0.012-0.012
				c-0.34-0.463-0.685-1.022-1.058-1.61l-1.312-2.138l0.729-0.729l2.132,1.374c0.548,0.356,1.051,0.701,1.521,1.057l0.011-0.011
				c-0.351-0.486-0.695-1.012-1.057-1.577l-1.329-2.12l0.707-0.707l2.787,4.834l-0.746,0.746l-2.188-1.396
				c-0.531-0.339-0.961-0.633-1.419-1l-0.012,0.011c0.34,0.475,0.634,0.916,0.956,1.464l1.351,2.233L29.389,9.654z"/>
		</g>
	</g>
	<polygon id="XMLID_115_" fill="#A82C4C" points="42,2 46,2 44,0 	"/>
	<polygon id="XMLID_114_" fill="#9E1F15" points="2,42 0,44 2,46 	"/>
</g>
<g id="XMLID_11_">
	<defs>
		<polygon id="XMLID_35_" points="46,46 0,46 0,0 		"/>
	</defs>
	<clipPath id="XMLID_3_">
		<use xlink:href="#XMLID_35_"  overflow="visible"/>
	</clipPath>
	<g id="XMLID_98_" clip-path="url(#XMLID_3_)">
		
			<linearGradient id="XMLID_4_" gradientUnits="userSpaceOnUse" x1="13.0728" y1="5.7759" x2="20.8503" y2="37.5523" gradientTransform="matrix(1 0 0 1 4.5 -1.864)">
			<stop  offset="0" style="stop-color:#AAB9C8"/>
			<stop  offset="1" style="stop-color:#788796"/>
		</linearGradient>
		<polygon id="XMLID_110_" fill="url(#XMLID_4_)" points="26,0 0,26 0,44 44,0 		"/>
		<g>
			<g>
				<path fill="#FFFFFF" d="M4.044,26.645l-0.463-0.463l0.525-0.525l0.464,0.463l0.809-0.809l0.486,0.486l-0.809,0.809L5.09,26.64
					c0.391-0.107,0.804-0.204,1.244-0.283l0.142,0.719c-0.407-0.034-0.74-0.051-1.001-0.051l0.882,0.882l-0.525,0.525l-0.893-0.893
					c0.135,0.564,0.175,1.113,0.129,1.633l-0.734-0.146c0.147-0.622,0.175-1.215,0.084-1.781l-0.83,0.832L3.101,27.59L4.044,26.645z
					 M9.37,25.233l0.464,0.463l-3.851,3.85L5.52,29.082L9.37,25.233z M6.385,24.305l-0.463-0.464l0.525-0.525l0.464,0.463
					l0.973-0.972l0.486,0.486l-0.764,0.763c0.497,0.113,1.074,0.102,1.73-0.057l0.084,0.774c-0.645,0.012-1.232-0.067-1.77-0.254
					l1.052,1.052l-0.525,0.525l-1.029-1.028c0.204,0.621,0.3,1.215,0.294,1.786L6.69,26.701c0.102-0.599,0.096-1.17-0.017-1.713
					l-0.583,0.583l-0.486-0.486L6.385,24.305z M10.659,25.571l0.486,0.486l-2.047,2.046l1.012,1.012
					c0.328,0.328,0.312,0.674-0.05,1.035l-0.526,0.526L8.94,30.298c0.181-0.136,0.352-0.282,0.498-0.43
					c0.113-0.113,0.119-0.231,0.012-0.339l-0.889-0.889l-2.211,2.211l-0.486-0.486L10.659,25.571z M8.278,29.953
					c0.074,0.673,0.041,1.373-0.117,2.098l-0.764-0.097c0.169-0.679,0.231-1.328,0.187-1.962L8.278,29.953z M12.237,27.104
					l0.163,0.763c-0.774-0.017-1.47,0.057-2.086,0.221l-0.13-0.673C10.852,27.222,11.53,27.12,12.237,27.104z"/>
				<path fill="#FFFFFF" d="M13.665,26.467l-0.78,0.045c-0.147-0.825-0.589-1.617-1.323-2.374l-2.771-2.771l4.337-4.336l4.257,4.257
					c0.425,0.425,0.418,0.859-0.012,1.289l-0.649,0.649l-0.668-0.384c0.238-0.204,0.453-0.396,0.645-0.589
					c0.182-0.181,0.164-0.389-0.057-0.609l-0.842-0.843l-1.402,1.402l1.611,1.611l-0.543,0.542l-1.611-1.611l-1.328,1.329
					C13.173,24.856,13.552,25.652,13.665,26.467z M9.854,21.344l0.848,0.849l1.301-1.3l-0.849-0.849L9.854,21.344z M12.06,23.549
					l1.3-1.3l-0.864-0.864l-1.301,1.3L12.06,23.549z M13.099,18.1l-1.401,1.401l0.848,0.849l1.402-1.402L13.099,18.1z M14.439,19.44
					l-1.402,1.402l0.865,0.864l1.401-1.401L14.439,19.44z"/>
			</g>
		</g>
		<polygon id="XMLID_105_" fill="#647382" points="42,2 46,2 44,0 		"/>
		<polygon id="XMLID_103_" fill="#283746" points="2,42 0,44 2,46 		"/>
	</g>
</g>
</svg>
