<?xml version="1.0" encoding="utf-8"?>
<!-- Generator: Adobe Illustrator 18.0.0, SVG Export Plug-In . SVG Version: 6.00 Build 0)  -->
<!DOCTYPE svg PUBLIC "-//W3C//DTD SVG 1.1//EN" "http://www.w3.org/Graphics/SVG/1.1/DTD/svg11.dtd">
<svg version="1.1" id="图层_1" xmlns="http://www.w3.org/2000/svg" xmlns:xlink="http://www.w3.org/1999/xlink" x="0px" y="0px"
	 viewBox="0 0 30 30" style="enable-background:new 0 0 30 30;" xml:space="preserve">
<style type="text/css">
	.st0{opacity:0.05;}
	.st1{clip-path:url(#SVGID_2_);}
	.st2{fill:#FFFFFF;}
	.st3{clip-path:url(#SVGID_4_);fill:url(#SVGID_5_);}
	.st4{fill:#A82C4C;}
	.st5{fill:#9E1F15;}
	.st6{opacity:0.1;}
	.st7{clip-path:url(#SVGID_7_);}
	.st8{fill:#CCCCCC;}
	.st9{fill:#6699EE;}
	.st10{fill:#4582EE;}
	.st11{opacity:0.3;}
</style>
<path class="st8" d="M7.381,22.619c0.55,0.55,1.451,0.498,2.003-0.115l3.223-3.79c0.353-0.392,0.515-0.811,0.499-1.149
	C14.154,18.459,15.514,19,17,19c3.313,0,6-2.687,6-6s-2.687-6-6-6c-3.314,0-6,2.687-6,6c0,1.486,0.541,2.846,1.436,3.893
	c-0.339-0.016-0.758,0.146-1.15,0.499l-3.79,3.223C6.882,21.167,6.831,22.069,7.381,22.619 M13,13c0-2.209,1.791-4,4-4
	c2.209,0,4,1.791,4,4s-1.791,4-4,4C14.791,17,13,15.209,13,13"/>
</svg>
