<?xml version="1.0" encoding="utf-8"?>
<!-- Generator: Adobe Illustrator 18.0.0, SVG Export Plug-In . SVG Version: 6.00 Build 0)  -->
<!DOCTYPE svg PUBLIC "-//W3C//DTD SVG 1.1//EN" "http://www.w3.org/Graphics/SVG/1.1/DTD/svg11.dtd">
<svg version="1.1" id="图层_1" xmlns="http://www.w3.org/2000/svg" xmlns:xlink="http://www.w3.org/1999/xlink" x="0px" y="0px"
	 viewBox="0 0 50 20" style="enable-background:new 0 0 50 20;" xml:space="preserve">
<style type="text/css">
	.st0{opacity:0.05;}
	.st1{clip-path:url(#SVGID_2_);}
	.st2{fill:#FFFFFF;}
	.st3{clip-path:url(#SVGID_4_);fill:url(#SVGID_5_);}
	.st4{fill:#A82C4C;}
	.st5{fill:#9E1F15;}
	.st6{opacity:0.1;}
	.st7{clip-path:url(#SVGID_7_);}
	.st8{fill:#CCCCCC;}
	.st9{fill:#6699EE;}
	.st10{fill:#4582EE;}
	.st11{opacity:0.3;}
	.st12{clip-path:url(#SVGID_9_);fill:#6699EE;}
	.st13{clip-path:url(#SVGID_11_);fill:#4582EE;}
</style>
<g>
	<defs>
		<rect id="SVGID_10_" width="50" height="20"/>
	</defs>
	<clipPath id="SVGID_2_">
		<use xlink:href="#SVGID_10_"  style="overflow:visible;"/>
	</clipPath>
	<path style="clip-path:url(#SVGID_2_);fill:#4582EE;" d="M3,20h44c1.657,0,3-1.343,3-3V3c0-1.657-1.343-3-3-3H3
		C1.343,0,0,1.343,0,3v14C0,18.657,1.343,20,3,20"/>
</g>
<g>
	<path class="st2" d="M11.186,6.552H4.145V5.54h8.482v1.012c-1.013,0.913-2.156,1.782-3.434,2.607v4.73
		c0,0.771-0.385,1.155-1.144,1.155c-0.671,0-1.255-0.021-1.749-0.065l-0.286-1.013c0.539,0.066,1.122,0.1,1.749,0.1
		c0.253,0,0.385-0.133,0.385-0.374V8.631C9.216,8.016,10.229,7.322,11.186,6.552z"/>
	<path class="st2" d="M15.122,15.221l-0.704-0.648c0.396-0.781,0.594-1.771,0.605-2.981V8.312L14.462,7.63
		c0.616-0.648,1.145-1.551,1.585-2.695l0.945,0.22c-0.076,0.198-0.154,0.396-0.23,0.584h1.87v0.715
		c-0.209,0.407-0.419,0.77-0.628,1.078h1.178v6.656c0,0.571-0.309,0.857-0.913,0.857h-0.539l-0.22-0.781v0.683h-0.825v-2.388h-0.825
		C15.76,13.615,15.518,14.495,15.122,15.221z M17.521,6.585h-1.166c-0.177,0.341-0.363,0.66-0.562,0.946h1.155
		C17.135,7.256,17.322,6.937,17.521,6.585z M15.914,8.422v1.166h0.771V8.422H15.914z M15.914,11.689h0.771v-1.243h-0.771V11.689z
		 M18.302,8.422H17.51v1.166h0.792V8.422z M18.302,10.446H17.51v1.243h0.792V10.446z M17.972,14.231c0.22,0,0.33-0.121,0.33-0.353
		v-1.32H17.51v1.629C17.674,14.209,17.828,14.231,17.972,14.231z M19.951,11.942l-0.604-0.736c0.462-0.507,0.781-1.178,0.935-2.014
		l0.859,0.154c-0.056,0.264-0.111,0.517-0.177,0.748h0.804V9.148h1.022v0.946h1.508v0.935H22.79v1.111h1.738v0.957H22.79v2.068
		h-1.022v-2.068h-2.344v-0.957h2.344v-1.111H20.59C20.414,11.382,20.193,11.679,19.951,11.942z M19.49,6.486V5.562h4.741
		c-0.011,1.562-0.121,2.498-0.33,2.806s-0.572,0.462-1.078,0.462c-0.264,0-0.572-0.021-0.935-0.044l-0.242-0.858
		c0.385,0.022,0.704,0.044,0.957,0.066c0.264-0.011,0.439-0.099,0.506-0.253s0.099-0.572,0.121-1.254h-1.397
		c-0.11,0.473-0.274,0.891-0.474,1.265c-0.297,0.474-0.726,0.902-1.287,1.287l-0.615-0.781c0.462-0.264,0.814-0.571,1.045-0.935
		c0.154-0.242,0.264-0.518,0.352-0.836H19.49z"/>
	<path class="st2" d="M35.275,5.353v0.979h-4.258v0.759h3.367v4.521h-3.521c-0.121,0.639-0.309,1.155-0.562,1.562
		c1.519,0.594,3.289,0.913,5.336,0.979l-0.265,1.012c-2.2-0.099-4.114-0.506-5.742-1.232c-0.792,0.616-2.035,1.023-3.74,1.222
		l-0.451-0.957c1.408-0.088,2.464-0.341,3.168-0.771c-0.594-0.33-1.133-0.704-1.617-1.111l0.803-0.55
		c0.474,0.374,0.99,0.693,1.541,0.979c0.197-0.309,0.362-0.693,0.473-1.134H26.65V7.091h3.333V6.332h-4.246V5.353H35.275z
		 M29.983,8.906V7.982h-2.299v0.924H29.983z M29.983,10.028V9.765h-2.299v0.935h2.267C29.973,10.479,29.983,10.248,29.983,10.028z
		 M33.351,9.765h-2.333v0.264c0,0.242-0.011,0.462-0.033,0.671h2.366V9.765z M31.018,8.906h2.333V7.982h-2.333V8.906z"/>
	<path class="st2" d="M42.282,5.408c-0.154,0.165-0.298,0.318-0.44,0.462h2.938v0.813c-1.188,2.112-3.389,3.312-6.612,3.576
		l-0.439-0.946c0.924-0.055,1.749-0.176,2.475-0.374c-0.308-0.374-0.638-0.715-0.968-1.023l0.902-0.429
		c0.363,0.352,0.715,0.726,1.045,1.122c1.013-0.43,1.815-1.034,2.398-1.815h-2.959c-0.858,0.506-1.859,0.88-3.015,1.133L36.99,6.97
		c1.947-0.352,3.399-1.034,4.356-2.046L42.282,5.408z M42.293,13.064c1.078-0.483,1.947-1.133,2.585-1.958h-3.014
		c-0.958,0.44-2.08,0.792-3.367,1.045l-0.627-0.935c2.398-0.231,4.17-0.936,5.292-2.123l0.891,0.483
		c-0.197,0.209-0.418,0.407-0.638,0.583h2.806v0.814c-1.573,2.574-4.5,3.917-8.79,4.026L37.012,14c1.662,0,3.092-0.188,4.291-0.562
		c-0.341-0.439-0.693-0.847-1.056-1.198l0.924-0.44C41.566,12.195,41.94,12.614,42.293,13.064z"/>
</g>
</svg>
