<?xml version="1.0" encoding="utf-8"?>
<!-- Generator: Adobe Illustrator 18.0.0, SVG Export Plug-In . SVG Version: 6.00 Build 0)  -->
<!DOCTYPE svg PUBLIC "-//W3C//DTD SVG 1.1//EN" "http://www.w3.org/Graphics/SVG/1.1/DTD/svg11.dtd">
<svg version="1.1" id="图层_1" xmlns="http://www.w3.org/2000/svg" xmlns:xlink="http://www.w3.org/1999/xlink" x="0px" y="0px"
	 viewBox="0 0 9 9" style="enable-background:new 0 0 9 9;" xml:space="preserve">
<style type="text/css">
	.st0{opacity:0.05;}
	.st1{clip-path:url(#SVGID_2_);}
	.st2{fill:#FFFFFF;}
	.st3{clip-path:url(#SVGID_4_);fill:url(#SVGID_5_);}
	.st4{fill:#A82C4C;}
	.st5{fill:#9E1F15;}
	.st6{opacity:0.1;}
	.st7{clip-path:url(#SVGID_7_);}
	.st8{fill:#CCCCCC;}
	.st9{fill:#6699EE;}
	.st10{fill:#4582EE;}
	.st11{opacity:0.3;}
</style>
<g>
	<g>
		<path class="st2" d="M5.914,4.5l2.793-2.793C8.902,1.512,9,1.256,9,1c0-0.256-0.098-0.512-0.293-0.707
			c-0.391-0.391-1.023-0.391-1.414,0L4.5,3.086L1.707,0.293c-0.391-0.391-1.023-0.391-1.414,0C0.098,0.488,0,0.744,0,1
			c0,0.256,0.098,0.512,0.293,0.707L3.086,4.5L0.293,7.293C0.098,7.488,0,7.744,0,8c0,0.256,0.098,0.512,0.293,0.707
			C0.488,8.902,0.744,9,1,9s0.512-0.098,0.707-0.293L4.5,5.914l2.793,2.793C7.488,8.902,7.744,9,8,9
			c0.256,0,0.512-0.098,0.707-0.293C8.902,8.512,9,8.256,9,8c0-0.256-0.098-0.512-0.293-0.707L5.914,4.5z"/>
	</g>
</g>
</svg>
